<svg width="30" height="30" viewBox="0 0 30 30" fill="none" xmlns="http://www.w3.org/2000/svg">
<path d="M15.0002 9.66671C12.0535 9.66671 9.66683 12.0534 9.66683 15C9.66683 17.9467 12.0535 20.3334 15.0002 20.3334C17.9468 20.3334 20.3335 17.9467 20.3335 15C20.3335 12.0534 17.9468 9.66671 15.0002 9.66671ZM26.9202 13.6667C26.6181 10.9629 25.4057 8.44209 23.4819 6.5183C21.5581 4.59451 19.0373 3.38206 16.3335 3.08004V1.66671C16.3335 0.933374 15.7335 0.333374 15.0002 0.333374C14.2668 0.333374 13.6668 0.933374 13.6668 1.66671V3.08004C10.963 3.38206 8.44221 4.59451 6.51842 6.5183C4.59463 8.44209 3.38218 10.9629 3.08016 13.6667H1.66683C0.933496 13.6667 0.333496 14.2667 0.333496 15C0.333496 15.7334 0.933496 16.3334 1.66683 16.3334H3.08016C3.38218 19.0372 4.59463 21.558 6.51842 23.4818C8.44221 25.4056 10.963 26.618 13.6668 26.92V28.3334C13.6668 29.0667 14.2668 29.6667 15.0002 29.6667C15.7335 29.6667 16.3335 29.0667 16.3335 28.3334V26.92C19.0373 26.618 21.5581 25.4056 23.4819 23.4818C25.4057 21.558 26.6181 19.0372 26.9202 16.3334H28.3335C29.0668 16.3334 29.6668 15.7334 29.6668 15C29.6668 14.2667 29.0668 13.6667 28.3335 13.6667H26.9202ZM15.0002 24.3334C9.84016 24.3334 5.66683 20.16 5.66683 15C5.66683 9.84004 9.84016 5.66671 15.0002 5.66671C20.1602 5.66671 24.3335 9.84004 24.3335 15C24.3335 20.16 20.1602 24.3334 15.0002 24.3334Z" fill="url(#paint0_linear_58_247)"/>
<defs>
<linearGradient id="paint0_linear_58_247" x1="15.0002" y1="0.333374" x2="15.0002" y2="29.6667" gradientUnits="userSpaceOnUse">
<stop stop-color="#FFBB00"/>
<stop offset="1" stop-color="#A66E00"/>
</linearGradient>
</defs>
</svg>
