<svg width="28" height="24" viewBox="0 0 28 24" fill="none" xmlns="http://www.w3.org/2000/svg">
<path d="M20.6665 18.6533C18.8665 18.6533 17.7332 19.2133 16.7332 19.72C15.8665 20.16 15.1598 20.52 13.9998 20.52C12.7998 20.52 12.1332 20.1867 11.2665 19.72C10.2665 19.2133 9.17317 18.6533 7.33317 18.6533C5.49317 18.6533 4.39984 19.2133 3.39984 19.72C2.8265 20.0133 2.31984 20.2667 1.7065 20.4133C1.1065 20.5467 0.666504 21.0267 0.666504 21.6267V21.76C0.666504 22.56 1.41317 23.1333 2.1865 22.9733C3.17317 22.7733 3.91984 22.4 4.59984 22.0533C5.4665 21.6133 6.15984 21.2533 7.33317 21.2533C8.5065 21.2533 9.19984 21.5867 10.0665 22.0533C11.0665 22.56 12.1598 23.12 13.9998 23.12C15.8398 23.12 16.9332 22.56 17.9332 22.0533C18.7998 21.6133 19.5065 21.2533 20.6665 21.2533C21.8665 21.2533 22.5332 21.5867 23.3998 22.0533C24.0932 22.4 24.8398 22.7867 25.8398 22.9867C26.02 23.0218 26.2056 23.017 26.3837 22.9725C26.5617 22.9281 26.7279 22.845 26.8703 22.7293C27.0127 22.6136 27.128 22.4679 27.208 22.3028C27.288 22.1376 27.3307 21.9569 27.3332 21.7733V21.6533C27.3332 21.04 26.8798 20.56 26.2798 20.4267C25.6665 20.2933 25.1732 20.04 24.5998 19.7333C23.5998 19.2133 22.4665 18.6533 20.6665 18.6533ZM20.6665 12.72C18.8665 12.72 17.7332 13.2933 16.7332 13.7867C15.8665 14.2133 15.1598 14.5867 13.9998 14.5867C12.7998 14.5867 12.1332 14.2533 11.2665 13.7867C10.2665 13.28 9.17317 12.72 7.33317 12.72C5.49317 12.72 4.39984 13.2933 3.39984 13.7867C2.8265 14.0667 2.31984 14.3333 1.69317 14.48C1.1065 14.6133 0.666504 15.0933 0.666504 15.6933V15.8267C0.66658 16.011 0.707734 16.1929 0.786971 16.3593C0.866209 16.5257 0.981538 16.6723 1.12457 16.7885C1.2676 16.9048 1.43474 16.9876 1.61382 17.0311C1.7929 17.0746 1.97943 17.0777 2.15984 17.04C3.15984 16.84 3.9065 16.4533 4.59984 16.12C5.4665 15.6533 6.13317 15.32 7.33317 15.32C8.53317 15.32 9.19984 15.6533 10.0665 16.12C11.0665 16.6267 12.1598 17.1867 13.9998 17.1867C15.8398 17.1867 16.9332 16.6133 17.9332 16.12C18.7998 15.6533 19.4665 15.32 20.6665 15.32C21.8665 15.32 22.5332 15.6533 23.3998 16.12C24.0932 16.4667 24.8398 16.8533 25.8398 17.0533C26.0211 17.0887 26.2079 17.0836 26.3869 17.0383C26.5659 16.9931 26.7327 16.9089 26.8754 16.7917C27.0181 16.6745 27.1331 16.5272 27.2122 16.3604C27.2914 16.1936 27.3327 16.0113 27.3332 15.8267V15.7067C27.3332 15.0933 26.8798 14.6133 26.2798 14.48C25.6665 14.3467 25.1732 14.0933 24.5998 13.7867C23.5998 13.28 22.4665 12.72 20.6665 12.72ZM24.5998 1.94667C23.5998 1.44 22.4932 0.880005 20.6665 0.880005C18.8398 0.880005 17.7332 1.44 16.7332 1.94667C15.8665 2.37334 15.1598 2.74667 13.9998 2.74667C12.7998 2.74667 12.1332 2.41334 11.2665 1.94667C10.2665 1.45334 9.17317 0.880005 7.33317 0.880005C5.49317 0.880005 4.39984 1.44 3.39984 1.94667C2.8265 2.24 2.31984 2.49334 1.7065 2.64C1.1065 2.77334 0.666504 3.25334 0.666504 3.85334V3.94667C0.666504 4.74667 1.3865 5.33334 2.15984 5.17334C3.15984 4.97334 3.9065 4.58667 4.59984 4.25334C5.4665 3.81334 6.15984 3.45334 7.33317 3.45334C8.5065 3.45334 9.19984 3.78667 10.0665 4.25334C11.0665 4.76 12.1598 5.32 13.9998 5.32C15.8398 5.32 16.9332 4.74667 17.9332 4.25334C18.7998 3.82667 19.5065 3.45334 20.6665 3.45334C21.8665 3.45334 22.5332 3.78667 23.3998 4.25334C24.0932 4.6 24.8398 4.98667 25.8398 5.18667C26.0211 5.22203 26.2079 5.21691 26.3869 5.17168C26.5659 5.12644 26.7327 5.04222 26.8754 4.92502C27.0181 4.80782 27.1331 4.66054 27.2122 4.49372C27.2914 4.32689 27.3327 4.14465 27.3332 3.96V3.84C27.3332 3.22667 26.8798 2.74667 26.2798 2.61334C25.6665 2.48 25.1732 2.24 24.5998 1.94667ZM20.6665 6.78667C18.8665 6.78667 17.7332 7.36001 16.7332 7.85334C15.8665 8.32 15.1998 8.65334 13.9998 8.65334C12.7998 8.65334 12.1332 8.32 11.2665 7.85334C10.2665 7.34667 9.17317 6.78667 7.33317 6.78667C5.49317 6.78667 4.39984 7.36001 3.39984 7.85334C2.8265 8.16001 2.33317 8.41334 1.71984 8.54667C1.11984 8.68 0.666504 9.16 0.666504 9.77334V9.89334C0.66658 10.0776 0.707734 10.2596 0.786971 10.426C0.866209 10.5924 0.981538 10.739 1.12457 10.8552C1.2676 10.9714 1.43474 11.0543 1.61382 11.0978C1.7929 11.1413 1.97943 11.1443 2.15984 11.1067C3.15984 10.9067 3.9065 10.52 4.59984 10.1867C5.4665 9.76 6.17317 9.38667 7.33317 9.38667C8.49317 9.38667 9.19984 9.72001 10.0665 10.1867C11.0665 10.6933 12.1598 11.2533 13.9998 11.2533C15.8398 11.2533 16.9332 10.68 17.9332 10.1867C18.7998 9.76 19.5065 9.38667 20.6665 9.38667C21.8665 9.38667 22.5332 9.72001 23.3998 10.1867C24.0932 10.5333 24.8398 10.92 25.8398 11.12C26.02 11.1552 26.2056 11.1503 26.3837 11.1059C26.5617 11.0614 26.7279 10.9783 26.8703 10.8626C27.0127 10.7469 27.128 10.6013 27.208 10.4361C27.288 10.2709 27.3307 10.0902 27.3332 9.90667V9.78667C27.3332 9.17334 26.8798 8.69334 26.2798 8.56C25.6665 8.42667 25.1732 8.17334 24.5998 7.86667C23.5998 7.34667 22.4665 6.78667 20.6665 6.78667Z" fill="url(#paint0_linear_58_196)"/>
<defs>
<linearGradient id="paint0_linear_58_196" x1="13.9998" y1="0.880005" x2="13.9998" y2="23.12" gradientUnits="userSpaceOnUse">
<stop stop-color="#FFBB00"/>
<stop offset="1" stop-color="#A66E00"/>
</linearGradient>
</defs>
</svg>
