<svg width="22" height="29" viewBox="0 0 22 29" fill="none" xmlns="http://www.w3.org/2000/svg">
<path d="M19.0002 9.66671H17.6668V7.00004C17.6668 3.32004 14.6802 0.333374 11.0002 0.333374C7.32016 0.333374 4.3335 3.32004 4.3335 7.00004V9.66671H3.00016C1.5335 9.66671 0.333496 10.8667 0.333496 12.3334V25.6667C0.333496 27.1334 1.5335 28.3334 3.00016 28.3334H19.0002C20.4668 28.3334 21.6668 27.1334 21.6668 25.6667V12.3334C21.6668 10.8667 20.4668 9.66671 19.0002 9.66671ZM11.0002 21.6667C9.5335 21.6667 8.3335 20.4667 8.3335 19C8.3335 17.5334 9.5335 16.3334 11.0002 16.3334C12.4668 16.3334 13.6668 17.5334 13.6668 19C13.6668 20.4667 12.4668 21.6667 11.0002 21.6667ZM7.00016 9.66671V7.00004C7.00016 4.78671 8.78683 3.00004 11.0002 3.00004C13.2135 3.00004 15.0002 4.78671 15.0002 7.00004V9.66671H7.00016Z" fill="url(#paint0_linear_58_241)"/>
<defs>
<linearGradient id="paint0_linear_58_241" x1="11.0002" y1="0.333374" x2="11.0002" y2="28.3334" gradientUnits="userSpaceOnUse">
<stop stop-color="#FFBB00"/>
<stop offset="1" stop-color="#A66E00"/>
</linearGradient>
</defs>
</svg>
