<svg width="28" height="22" viewBox="0 0 28 22" fill="none" xmlns="http://www.w3.org/2000/svg">
<path d="M23.9468 8.33334C23.8152 8.52771 23.7373 8.75335 23.7209 8.98746C23.7046 9.22158 23.7503 9.45587 23.8534 9.66667C24.1841 10.4387 24.4174 11.2493 24.5468 12.08C24.89 14.2269 24.569 16.4273 23.6268 18.3867C23.5123 18.6016 23.3412 18.7811 23.132 18.9056C22.9229 19.0302 22.6836 19.0951 22.4401 19.0933H5.57342C5.32858 19.0938 5.08833 19.0269 4.87901 18.8999C4.66969 18.7729 4.49938 18.5907 4.38675 18.3733C3.53326 16.6419 3.16561 14.7113 3.323 12.7874C3.48039 10.8635 4.15691 9.01835 5.28046 7.44867C6.40401 5.87899 7.93245 4.64362 9.70286 3.87426C11.4733 3.1049 13.4193 2.8304 15.3334 3.08C16.3019 3.19384 17.2493 3.44526 18.1467 3.82667C18.3575 3.92983 18.5918 3.97553 18.826 3.95914C19.0601 3.94275 19.2857 3.86486 19.4801 3.73334C19.6826 3.59993 19.8449 3.41382 19.9495 3.19504C20.0541 2.97626 20.097 2.73309 20.0737 2.49172C20.0504 2.25034 19.9617 2.01989 19.8172 1.82518C19.6726 1.63046 19.4777 1.47886 19.2534 1.38667C16.6777 0.282214 13.8194 0.0174549 11.0846 0.630002C8.34985 1.24255 5.87761 2.70126 4.01909 4.79891C2.16058 6.89657 1.01029 9.52652 0.731618 12.3152C0.45295 15.1038 1.06008 17.9094 2.46675 20.3333C2.69943 20.7364 3.03354 21.0715 3.43586 21.3054C3.83818 21.5393 4.29472 21.6639 4.76009 21.6667H23.2268C23.6966 21.6685 24.1587 21.5462 24.5661 21.3121C24.9735 21.0779 25.3118 20.7403 25.5468 20.3333C26.5766 18.5486 27.1788 16.5494 27.306 14.4928C27.4332 12.4362 27.0821 10.3781 26.2801 8.48001C26.1785 8.26368 26.0207 8.07864 25.823 7.94424C25.6254 7.80983 25.3953 7.73101 25.1568 7.71602C24.9183 7.70103 24.6802 7.75042 24.4673 7.85902C24.2544 7.96762 24.0746 8.13144 23.9468 8.33334Z" fill="url(#paint0_linear_58_244)"/>
<defs>
<linearGradient id="paint0_linear_58_244" x1="13.9985" y1="0.307617" x2="13.9985" y2="21.6667" gradientUnits="userSpaceOnUse">
<stop stop-color="#FFBB00"/>
<stop offset="1" stop-color="#A66E00"/>
</linearGradient>
</defs>
</svg>
